<svg width="14" height="22" viewBox="0 0 14 22" fill="none" xmlns="http://www.w3.org/2000/svg">
<path d="M13.2958 1.96428C13.2958 1.77344 13.2109 1.60379 13.0837 1.47656L12.0234 0.416293C11.8962 0.289062 11.7054 0.204239 11.5357 0.204239C11.3661 0.204239 11.1752 0.289062 11.048 0.416293L1.16629 10.298C1.03906 10.4252 0.954241 10.6161 0.954241 10.7857C0.954241 10.9554 1.03906 11.1462 1.16629 11.2734L11.048 21.1551C11.1752 21.2824 11.3661 21.3672 11.5357 21.3672C11.7054 21.3672 11.8962 21.2824 12.0234 21.1551L13.0837 20.0949C13.2109 19.9676 13.2958 19.7768 13.2958 19.6071C13.2958 19.4375 13.2109 19.2467 13.0837 19.1194L4.75 10.7857L13.0837 2.45201C13.2109 2.32478 13.2958 2.13393 13.2958 1.96428Z" fill="black"/>
</svg>
